<?xml version="1.0" encoding="UTF-8" standalone="no"?>
<!DOCTYPE svg PUBLIC "-//W3C//DTD SVG 1.1//EN"
 "http://www.w3.org/Graphics/SVG/1.1/DTD/svg11.dtd">
<!-- Generated by graphviz version 2.43.0 (0)
 -->
<!-- Title: G Pages: 1 -->
<svg width="684pt" height="648pt"
 viewBox="0.00 0.00 684.00 648.00" xmlns="http://www.w3.org/2000/svg" xmlns:xlink="http://www.w3.org/1999/xlink">
<g id="graph0" class="graph" transform="scale(1 1) rotate(0) translate(4 644)">
<title>G</title>
<polygon fill="white" stroke="transparent" points="-4,4 -4,-644 680,-644 680,4 -4,4"/>
<!-- rawDiag -->
<g id="node1" class="node">
<title>rawDiag</title>
<path fill="none" stroke="black" d="M279.5,-603.5C279.5,-603.5 332.5,-603.5 332.5,-603.5 338.5,-603.5 344.5,-609.5 344.5,-615.5 344.5,-615.5 344.5,-627.5 344.5,-627.5 344.5,-633.5 338.5,-639.5 332.5,-639.5 332.5,-639.5 279.5,-639.5 279.5,-639.5 273.5,-639.5 267.5,-633.5 267.5,-627.5 267.5,-627.5 267.5,-615.5 267.5,-615.5 267.5,-609.5 273.5,-603.5 279.5,-603.5"/>
<text text-anchor="middle" x="306" y="-617.8" font-family="Times,serif" font-size="14.00">rawDiag</text>
</g>
<!-- Spectra -->
<g id="node2" class="node">
<title>Spectra</title>
<path fill="none" stroke="black" d="M282,-530.5C282,-530.5 330,-530.5 330,-530.5 336,-530.5 342,-536.5 342,-542.5 342,-542.5 342,-554.5 342,-554.5 342,-560.5 336,-566.5 330,-566.5 330,-566.5 282,-566.5 282,-566.5 276,-566.5 270,-560.5 270,-554.5 270,-554.5 270,-542.5 270,-542.5 270,-536.5 276,-530.5 282,-530.5"/>
<text text-anchor="middle" x="306" y="-544.8" font-family="Times,serif" font-size="14.00">Spectra</text>
</g>
<!-- rawDiag&#45;&gt;Spectra -->
<g id="edge1" class="edge">
<title>rawDiag&#45;&gt;Spectra</title>
<path fill="none" stroke="black" d="M306,-603.31C306,-595.29 306,-585.55 306,-576.57"/>
<polygon fill="black" stroke="black" points="309.5,-576.53 306,-566.53 302.5,-576.53 309.5,-576.53"/>
</g>
<!-- MsBackendRawFileReader -->
<g id="node3" class="node">
<title>MsBackendRawFileReader</title>
<path fill="none" stroke="black" d="M120,-457.5C120,-457.5 304,-457.5 304,-457.5 310,-457.5 316,-463.5 316,-469.5 316,-469.5 316,-481.5 316,-481.5 316,-487.5 310,-493.5 304,-493.5 304,-493.5 120,-493.5 120,-493.5 114,-493.5 108,-487.5 108,-481.5 108,-481.5 108,-469.5 108,-469.5 108,-463.5 114,-457.5 120,-457.5"/>
<text text-anchor="middle" x="212" y="-471.8" font-family="Times,serif" font-size="14.00">MsBackendRawFileReader</text>
</g>
<!-- Spectra&#45;&gt;MsBackendRawFileReader -->
<g id="edge2" class="edge">
<title>Spectra&#45;&gt;MsBackendRawFileReader</title>
<path fill="none" stroke="black" d="M283.25,-530.31C271.12,-521.16 256.03,-509.76 242.87,-499.82"/>
<polygon fill="black" stroke="black" points="244.63,-496.76 234.55,-493.53 240.42,-502.35 244.63,-496.76"/>
</g>
<!-- MsBackendMzR -->
<g id="node13" class="node">
<title>MsBackendMzR</title>
<path fill="none" stroke="lightgrey" d="M415.5,-457.5C415.5,-457.5 522.5,-457.5 522.5,-457.5 528.5,-457.5 534.5,-463.5 534.5,-469.5 534.5,-469.5 534.5,-481.5 534.5,-481.5 534.5,-487.5 528.5,-493.5 522.5,-493.5 522.5,-493.5 415.5,-493.5 415.5,-493.5 409.5,-493.5 403.5,-487.5 403.5,-481.5 403.5,-481.5 403.5,-469.5 403.5,-469.5 403.5,-463.5 409.5,-457.5 415.5,-457.5"/>
<text text-anchor="middle" x="469" y="-471.8" font-family="Times,serif" font-size="14.00" fill="lightgrey">MsBackendMzR</text>
</g>
<!-- Spectra&#45;&gt;MsBackendMzR -->
<g id="edge14" class="edge">
<title>Spectra&#45;&gt;MsBackendMzR</title>
<path fill="none" stroke="lightgrey" d="M342.17,-531.74C365.21,-521.71 395.33,-508.59 420.44,-497.65"/>
<polygon fill="lightgrey" stroke="lightgrey" points="422.02,-500.78 429.79,-493.58 419.23,-494.36 422.02,-500.78"/>
</g>
<!-- Rcpp -->
<g id="node4" class="node">
<title>Rcpp</title>
<path fill="none" stroke="black" d="M233,-384.5C233,-384.5 263,-384.5 263,-384.5 269,-384.5 275,-390.5 275,-396.5 275,-396.5 275,-408.5 275,-408.5 275,-414.5 269,-420.5 263,-420.5 263,-420.5 233,-420.5 233,-420.5 227,-420.5 221,-414.5 221,-408.5 221,-408.5 221,-396.5 221,-396.5 221,-390.5 227,-384.5 233,-384.5"/>
<text text-anchor="middle" x="248" y="-398.8" font-family="Times,serif" font-size="14.00">Rcpp</text>
</g>
<!-- MsBackendRawFileReader&#45;&gt;Rcpp -->
<g id="edge3" class="edge">
<title>MsBackendRawFileReader&#45;&gt;Rcpp</title>
<path fill="none" stroke="black" d="M220.71,-457.31C224.92,-449.03 230.05,-438.91 234.72,-429.69"/>
<polygon fill="black" stroke="black" points="237.96,-431.03 239.37,-420.53 231.72,-427.87 237.96,-431.03"/>
</g>
<!-- parseRcode -->
<g id="node5" class="node">
<title>parseRcode</title>
<path fill="none" stroke="lightgrey" d="M12,-238.5C12,-238.5 88,-238.5 88,-238.5 94,-238.5 100,-244.5 100,-250.5 100,-250.5 100,-262.5 100,-262.5 100,-268.5 94,-274.5 88,-274.5 88,-274.5 12,-274.5 12,-274.5 6,-274.5 0,-268.5 0,-262.5 0,-262.5 0,-250.5 0,-250.5 0,-244.5 6,-238.5 12,-238.5"/>
<text text-anchor="middle" x="50" y="-252.8" font-family="Times,serif" font-size="14.00" fill="lightgrey">parseRcode</text>
</g>
<!-- MsBackendRawFileReader&#45;&gt;parseRcode -->
<g id="edge4" class="edge">
<title>MsBackendRawFileReader&#45;&gt;parseRcode</title>
<path fill="none" stroke="lightgrey" d="M194.64,-457.27C184.68,-447.07 172.18,-433.69 162,-421 124.81,-374.64 86.81,-316.39 66.03,-283.41"/>
<polygon fill="lightgrey" stroke="lightgrey" points="68.91,-281.43 60.64,-274.81 62.98,-285.14 68.91,-281.43"/>
</g>
<!-- dotNet -->
<g id="node8" class="node">
<title>dotNet</title>
<path fill="none" stroke="black" d="M185,-165.5C185,-165.5 215,-165.5 215,-165.5 221,-165.5 227,-171.5 227,-177.5 227,-177.5 227,-189.5 227,-189.5 227,-195.5 221,-201.5 215,-201.5 215,-201.5 185,-201.5 185,-201.5 179,-201.5 173,-195.5 173,-189.5 173,-189.5 173,-177.5 173,-177.5 173,-171.5 179,-165.5 185,-165.5"/>
<text text-anchor="middle" x="200" y="-179.8" font-family="Times,serif" font-size="14.00">.NET</text>
</g>
<!-- MsBackendRawFileReader&#45;&gt;dotNet -->
<g id="edge11" class="edge">
<title>MsBackendRawFileReader&#45;&gt;dotNet</title>
<path fill="none" stroke="lightgrey" d="M209.14,-457.38C205.24,-433.12 198.48,-387.33 196,-348 192.99,-300.14 195.69,-244.26 197.88,-211.78"/>
<polygon fill="lightgrey" stroke="lightgrey" points="201.38,-211.93 198.59,-201.7 194.39,-211.43 201.38,-211.93"/>
</g>
<!-- API -->
<g id="node6" class="node">
<title>API</title>
<path fill="none" stroke="black" d="M216.5,-311.5C216.5,-311.5 313.5,-311.5 313.5,-311.5 319.5,-311.5 325.5,-317.5 325.5,-323.5 325.5,-323.5 325.5,-335.5 325.5,-335.5 325.5,-341.5 319.5,-347.5 313.5,-347.5 313.5,-347.5 216.5,-347.5 216.5,-347.5 210.5,-347.5 204.5,-341.5 204.5,-335.5 204.5,-335.5 204.5,-323.5 204.5,-323.5 204.5,-317.5 210.5,-311.5 216.5,-311.5"/>
<text text-anchor="middle" x="265" y="-325.8" font-family="Times,serif" font-size="14.00">TCP&#45;based API</text>
</g>
<!-- Rcpp&#45;&gt;API -->
<g id="edge5" class="edge">
<title>Rcpp&#45;&gt;API</title>
<path fill="none" stroke="black" d="M252.12,-384.31C254.06,-376.2 256.42,-366.34 258.59,-357.28"/>
<polygon fill="black" stroke="black" points="262,-358.07 260.92,-347.53 255.19,-356.44 262,-358.07"/>
</g>
<!-- Rcode -->
<g id="node9" class="node">
<title>Rcode</title>
<path fill="none" stroke="lightgrey" d="M56,-8C56,-8 150,-8 150,-8 156,-8 162,-14 162,-20 162,-20 162,-34 162,-34 162,-40 156,-46 150,-46 150,-46 56,-46 56,-46 50,-46 44,-40 44,-34 44,-34 44,-20 44,-20 44,-14 50,-8 56,-8"/>
<text text-anchor="middle" x="103" y="-30.8" font-family="Times,serif" font-size="14.00" fill="lightgrey">temporary *.R</text>
<text text-anchor="middle" x="103" y="-15.8" font-family="Times,serif" font-size="14.00" fill="lightgrey">on filesystem</text>
</g>
<!-- parseRcode&#45;&gt;Rcode -->
<g id="edge8" class="edge">
<title>parseRcode&#45;&gt;Rcode</title>
<path fill="none" stroke="lightgrey" d="M45.17,-238.3C37.41,-207.36 24.94,-140.8 45,-90 50.53,-75.99 60.89,-63.28 71.34,-53.08"/>
<polygon fill="lightgrey" stroke="lightgrey" points="73.92,-55.45 78.9,-46.1 69.17,-50.31 73.92,-55.45"/>
</g>
<!-- rDotNet -->
<g id="node7" class="node">
<title>rDotNet</title>
<path fill="none" stroke="black" d="M228.5,-238.5C228.5,-238.5 279.5,-238.5 279.5,-238.5 285.5,-238.5 291.5,-244.5 291.5,-250.5 291.5,-250.5 291.5,-262.5 291.5,-262.5 291.5,-268.5 285.5,-274.5 279.5,-274.5 279.5,-274.5 228.5,-274.5 228.5,-274.5 222.5,-274.5 216.5,-268.5 216.5,-262.5 216.5,-262.5 216.5,-250.5 216.5,-250.5 216.5,-244.5 222.5,-238.5 228.5,-238.5"/>
<text text-anchor="middle" x="254" y="-252.8" font-family="Times,serif" font-size="14.00">rDotNet</text>
</g>
<!-- API&#45;&gt;rDotNet -->
<g id="edge6" class="edge">
<title>API&#45;&gt;rDotNet</title>
<path fill="none" stroke="black" d="M262.34,-311.31C261.09,-303.29 259.58,-293.55 258.19,-284.57"/>
<polygon fill="black" stroke="black" points="261.63,-283.88 256.64,-274.53 254.71,-284.95 261.63,-283.88"/>
</g>
<!-- rDotNet&#45;&gt;dotNet -->
<g id="edge7" class="edge">
<title>rDotNet&#45;&gt;dotNet</title>
<path fill="none" stroke="black" d="M240.93,-238.31C234.36,-229.68 226.28,-219.06 219.04,-209.53"/>
<polygon fill="black" stroke="black" points="221.79,-207.37 212.95,-201.53 216.22,-211.61 221.79,-207.37"/>
</g>
<!-- writeRcode -->
<g id="node10" class="node">
<title>writeRcode</title>
<path fill="none" stroke="lightgrey" d="M66,-91.5C66,-91.5 140,-91.5 140,-91.5 146,-91.5 152,-97.5 152,-103.5 152,-103.5 152,-115.5 152,-115.5 152,-121.5 146,-127.5 140,-127.5 140,-127.5 66,-127.5 66,-127.5 60,-127.5 54,-121.5 54,-115.5 54,-115.5 54,-103.5 54,-103.5 54,-97.5 60,-91.5 66,-91.5"/>
<text text-anchor="middle" x="103" y="-105.8" font-family="Times,serif" font-size="14.00" fill="lightgrey">writeRcode</text>
</g>
<!-- dotNet&#45;&gt;writeRcode -->
<g id="edge9" class="edge">
<title>dotNet&#45;&gt;writeRcode</title>
<path fill="none" stroke="lightgrey" d="M177.01,-165.44C164.3,-156 148.32,-144.14 134.46,-133.85"/>
<polygon fill="lightgrey" stroke="lightgrey" points="136.27,-130.84 126.16,-127.69 132.1,-136.46 136.27,-130.84"/>
</g>
<!-- dll1 -->
<g id="node11" class="node">
<title>dll1</title>
<path fill="none" stroke="black" d="M182.5,-90.5C182.5,-90.5 409.5,-90.5 409.5,-90.5 415.5,-90.5 421.5,-96.5 421.5,-102.5 421.5,-102.5 421.5,-116.5 421.5,-116.5 421.5,-122.5 415.5,-128.5 409.5,-128.5 409.5,-128.5 182.5,-128.5 182.5,-128.5 176.5,-128.5 170.5,-122.5 170.5,-116.5 170.5,-116.5 170.5,-102.5 170.5,-102.5 170.5,-96.5 176.5,-90.5 182.5,-90.5"/>
<text text-anchor="middle" x="296" y="-113.3" font-family="Times,serif" font-size="14.00">ThermoFisher.CommonCore.*.dll</text>
<text text-anchor="middle" x="296" y="-98.3" font-family="Times,serif" font-size="14.00">Linux/Apple/Microsoft</text>
</g>
<!-- dotNet&#45;&gt;dll1 -->
<g id="edge12" class="edge">
<title>dotNet&#45;&gt;dll1</title>
<path fill="none" stroke="black" d="M222.75,-165.44C234.96,-156.28 250.23,-144.83 263.65,-134.76"/>
<polygon fill="black" stroke="black" points="265.83,-137.5 271.73,-128.7 261.63,-131.9 265.83,-137.5"/>
</g>
<!-- raw -->
<g id="node12" class="node">
<title>raw</title>
<path fill="none" stroke="black" d="M349,-8C349,-8 437,-8 437,-8 443,-8 449,-14 449,-20 449,-20 449,-34 449,-34 449,-40 443,-46 437,-46 437,-46 349,-46 349,-46 343,-46 337,-40 337,-34 337,-34 337,-20 337,-20 337,-14 343,-8 349,-8"/>
<text text-anchor="middle" x="393" y="-30.8" font-family="Times,serif" font-size="14.00">*.raw</text>
<text text-anchor="middle" x="393" y="-15.8" font-family="Times,serif" font-size="14.00">on filesystem</text>
</g>
<!-- writeRcode&#45;&gt;Rcode -->
<g id="edge10" class="edge">
<title>writeRcode&#45;&gt;Rcode</title>
<path fill="none" stroke="lightgrey" d="M103,-91.43C103,-81.25 103,-68.08 103,-56.37"/>
<polygon fill="lightgrey" stroke="lightgrey" points="106.5,-56.17 103,-46.17 99.5,-56.17 106.5,-56.17"/>
</g>
<!-- dll1&#45;&gt;raw -->
<g id="edge13" class="edge">
<title>dll1&#45;&gt;raw</title>
<path fill="none" stroke="black" d="M318.01,-90.23C331.41,-79.12 348.69,-64.77 363.28,-52.66"/>
<polygon fill="black" stroke="black" points="365.62,-55.27 371.08,-46.19 361.15,-49.89 365.62,-55.27"/>
</g>
<!-- mzXML -->
<g id="node16" class="node">
<title>mzXML</title>
<path fill="none" stroke="lightgrey" d="M576,-0.5C576,-0.5 664,-0.5 664,-0.5 670,-0.5 676,-6.5 676,-12.5 676,-12.5 676,-41.5 676,-41.5 676,-47.5 670,-53.5 664,-53.5 664,-53.5 576,-53.5 576,-53.5 570,-53.5 564,-47.5 564,-41.5 564,-41.5 564,-12.5 564,-12.5 564,-6.5 570,-0.5 576,-0.5"/>
<text text-anchor="middle" x="620" y="-38.3" font-family="Times,serif" font-size="14.00" fill="lightgrey">*.mzXML</text>
<text text-anchor="middle" x="620" y="-23.3" font-family="Times,serif" font-size="14.00" fill="lightgrey">*.mzML</text>
<text text-anchor="middle" x="620" y="-8.3" font-family="Times,serif" font-size="14.00" fill="lightgrey">on filesystem</text>
</g>
<!-- mzR -->
<g id="node14" class="node">
<title>mzR</title>
<path fill="none" stroke="lightgrey" d="M495,-384.5C495,-384.5 525,-384.5 525,-384.5 531,-384.5 537,-390.5 537,-396.5 537,-396.5 537,-408.5 537,-408.5 537,-414.5 531,-420.5 525,-420.5 525,-420.5 495,-420.5 495,-420.5 489,-420.5 483,-414.5 483,-408.5 483,-408.5 483,-396.5 483,-396.5 483,-390.5 489,-384.5 495,-384.5"/>
<text text-anchor="middle" x="510" y="-398.8" font-family="Times,serif" font-size="14.00" fill="lightgrey">mzR</text>
</g>
<!-- MsBackendMzR&#45;&gt;mzR -->
<g id="edge15" class="edge">
<title>MsBackendMzR&#45;&gt;mzR</title>
<path fill="none" stroke="lightgrey" d="M478.92,-457.31C483.76,-448.94 489.67,-438.7 495.04,-429.4"/>
<polygon fill="lightgrey" stroke="lightgrey" points="498.2,-430.94 500.17,-420.53 492.13,-427.44 498.2,-430.94"/>
</g>
<!-- XMLparser -->
<g id="node15" class="node">
<title>XMLparser</title>
<path fill="none" stroke="lightgrey" d="M540,-311.5C540,-311.5 612,-311.5 612,-311.5 618,-311.5 624,-317.5 624,-323.5 624,-323.5 624,-335.5 624,-335.5 624,-341.5 618,-347.5 612,-347.5 612,-347.5 540,-347.5 540,-347.5 534,-347.5 528,-341.5 528,-335.5 528,-335.5 528,-323.5 528,-323.5 528,-317.5 534,-311.5 540,-311.5"/>
<text text-anchor="middle" x="576" y="-325.8" font-family="Times,serif" font-size="14.00" fill="lightgrey">XMLparser</text>
</g>
<!-- mzR&#45;&gt;XMLparser -->
<g id="edge16" class="edge">
<title>mzR&#45;&gt;XMLparser</title>
<path fill="none" stroke="lightgrey" d="M525.98,-384.31C534.16,-375.5 544.28,-364.63 553.26,-354.96"/>
<polygon fill="lightgrey" stroke="lightgrey" points="555.93,-357.24 560.17,-347.53 550.8,-352.47 555.93,-357.24"/>
</g>
<!-- XMLparser&#45;&gt;mzXML -->
<g id="edge17" class="edge">
<title>XMLparser&#45;&gt;mzXML</title>
<path fill="none" stroke="lightgrey" d="M581.26,-311.38C591.45,-277.15 613.56,-197.66 621,-129 622.87,-111.77 621.14,-107.33 621,-90 620.93,-81.5 620.81,-72.36 620.68,-63.76"/>
<polygon fill="lightgrey" stroke="lightgrey" points="624.17,-63.58 620.51,-53.64 617.17,-63.7 624.17,-63.58"/>
</g>
<!-- msconvert -->
<g id="node17" class="node">
<title>msconvert</title>
<path fill="none" stroke="lightgrey" d="M516,-165.5C516,-165.5 584,-165.5 584,-165.5 590,-165.5 596,-171.5 596,-177.5 596,-177.5 596,-189.5 596,-189.5 596,-195.5 590,-201.5 584,-201.5 584,-201.5 516,-201.5 516,-201.5 510,-201.5 504,-195.5 504,-189.5 504,-189.5 504,-177.5 504,-177.5 504,-171.5 510,-165.5 516,-165.5"/>
<text text-anchor="middle" x="550" y="-179.8" font-family="Times,serif" font-size="14.00" fill="lightgrey">msconvert</text>
</g>
<!-- msconvert&#45;&gt;mzXML -->
<g id="edge20" class="edge">
<title>msconvert&#45;&gt;mzXML</title>
<path fill="none" stroke="lightgrey" d="M571.42,-165.32C581.94,-155.73 593.86,-142.93 601,-129 611.33,-108.85 616.09,-83.87 618.26,-63.79"/>
<polygon fill="lightgrey" stroke="lightgrey" points="621.75,-64.06 619.17,-53.79 614.78,-63.42 621.75,-64.06"/>
</g>
<!-- dll0 -->
<g id="node18" class="node">
<title>dll0</title>
<path fill="none" stroke="lightgrey" d="M452,-90.5C452,-90.5 580,-90.5 580,-90.5 586,-90.5 592,-96.5 592,-102.5 592,-102.5 592,-116.5 592,-116.5 592,-122.5 586,-128.5 580,-128.5 580,-128.5 452,-128.5 452,-128.5 446,-128.5 440,-122.5 440,-116.5 440,-116.5 440,-102.5 440,-102.5 440,-96.5 446,-90.5 452,-90.5"/>
<text text-anchor="middle" x="516" y="-113.3" font-family="Times,serif" font-size="14.00" fill="lightgrey">MSFileReader DLL</text>
<text text-anchor="middle" x="516" y="-98.3" font-family="Times,serif" font-size="14.00" fill="lightgrey">Microsoft</text>
</g>
<!-- msconvert&#45;&gt;dll0 -->
<g id="edge18" class="edge">
<title>msconvert&#45;&gt;dll0</title>
<path fill="none" stroke="lightgrey" d="M541.94,-165.44C538.07,-157.23 533.32,-147.18 528.96,-137.93"/>
<polygon fill="lightgrey" stroke="lightgrey" points="532.03,-136.25 524.59,-128.7 525.7,-139.24 532.03,-136.25"/>
</g>
<!-- dll0&#45;&gt;raw -->
<g id="edge19" class="edge">
<title>dll0&#45;&gt;raw</title>
<path fill="none" stroke="lightgrey" d="M488.4,-90.43C470.83,-78.94 447.9,-63.93 428.92,-51.51"/>
<polygon fill="lightgrey" stroke="lightgrey" points="430.8,-48.55 420.51,-46.01 426.96,-54.41 430.8,-48.55"/>
</g>
</g>
</svg>
